# xmcd
#
# Track frame offsets: 
#        150
#        8755
#        25045
#        40682
#        55586
#        70373
#        85798
#        95399
#        111374
#        130687
#        150780
#
# Disc length: 2197 seconds
#
# Revision: 0
# Processed by: cddbd v1.5.2PL0 Copyright (c) Steve Scherf et al.
# Submitted via: ExactAudioCopy v0.99pb4
#
DISCID=7408930b
DTITLE=Nell Bryden - What Does It Take?
DYEAR=2009
DGENRE=Blues
TTITLE0=What Does It Take?
TTITLE1=Not Like Loving You
TTITLE2=Where The Pavement Ends
TTITLE3=Helen's Requiem
TTITLE4=Goodbye
TTITLE5=Only Life I Know
TTITLE6=Second Time Around
TTITLE7=Meridian (I Love The Same)
TTITLE8=Green Dress
TTITLE9=Tonight
TTITLE10=Late Night Call
EXTD=
EXTT0=
EXTT1=
EXTT2=
EXTT3=
EXTT4=
EXTT5=
EXTT6=
EXTT7=
EXTT8=
EXTT9=
EXTT10=
PLAYORDER=
